<svg width="12" height="13" viewBox="0 0 12 13" fill="none" xmlns="http://www.w3.org/2000/svg">
<path d="M1 5C1 3.89543 1.89543 3 3 3H9C10.1046 3 11 3.89543 11 5C11 5.27614 10.7761 5.5 10.5 5.5H1.5C1.22386 5.5 1 5.27614 1 5Z" fill="#0F0F0F"/>
<path d="M10 6.5C10.4714 6.5 10.7071 6.50004 10.8535 6.64648C11 6.79293 11 7.0286 11 7.5C11 9.38562 10.9998 10.3283 10.4141 10.9141C9.82828 11.4998 8.88562 11.5 7 11.5H5C3.11438 11.5 2.17172 11.4998 1.58594 10.9141C1.00015 10.3283 1 9.38562 1 7.5C1 7.0286 1.00004 6.79293 1.14648 6.64648C1.29293 6.50004 1.5286 6.5 2 6.5H10ZM4 9.5C3.72386 9.5 3.5 9.72386 3.5 10C3.5 10.2761 3.72386 10.5 4 10.5H5C5.27614 10.5 5.5 10.2761 5.5 10C5.5 9.72386 5.27614 9.5 5 9.5H4ZM7 9.5C6.72386 9.5 6.5 9.72386 6.5 10C6.5 10.2761 6.72386 10.5 7 10.5H8C8.27614 10.5 8.5 10.2761 8.5 10C8.5 9.72386 8.27614 9.5 8 9.5H7ZM4 7.5C3.72386 7.5 3.5 7.72386 3.5 8C3.5 8.27614 3.72386 8.5 4 8.5H5C5.27614 8.5 5.5 8.27614 5.5 8C5.5 7.72386 5.27614 7.5 5 7.5H4ZM7 7.5C6.72386 7.5 6.5 7.72386 6.5 8C6.5 8.27614 6.72386 8.5 7 8.5H8C8.27614 8.5 8.5 8.27614 8.5 8C8.5 7.72386 8.27614 7.5 8 7.5H7Z" fill="#0F0F0F"/>
<path d="M3.5 2L3.5 3.5" stroke="#0F0F0F" stroke-width="2" stroke-linecap="round"/>
<path d="M8.5 2L8.5 3.5" stroke="#0F0F0F" stroke-width="2" stroke-linecap="round"/>
</svg>
