<svg width="20" height="13" viewBox="0 0 20 13" fill="none" xmlns="http://www.w3.org/2000/svg">
<path d="M1 2.5C1 1.55719 1 1.08579 1.29289 0.792893C1.58579 0.5 2.05719 0.5 3 0.5H13.9296C14.4536 0.5 14.7156 0.5 14.9367 0.618325C15.1578 0.736651 15.3031 0.954634 15.5937 1.3906L18.2604 5.3906C18.6189 5.92835 18.7981 6.19722 18.7981 6.5C18.7981 6.80278 18.6189 7.07165 18.2604 7.6094L15.5937 11.6094C15.3031 12.0454 15.1578 12.2633 14.9367 12.3817C14.7156 12.5 14.4536 12.5 13.9296 12.5H3C2.05719 12.5 1.58579 12.5 1.29289 12.2071C1 11.9142 1 11.4428 1 10.5V2.5Z" stroke="white"/>
<circle cx="13" cy="6.5" r="1" fill="white" stroke="white"/>
</svg>
